<svg width="109" height="109" viewBox="0 0 109 109" fill="none" xmlns="http://www.w3.org/2000/svg">
<path d="M84.0544 9.08331L66.9425 26.1953C63.3952 29.7425 57.6332 29.4023 52.831 27.9515C47.9873 26.488 43.0525 27.3558 40.0166 30.3917C34.9387 35.4696 35.1357 43.8995 40.4566 49.2204C45.7775 54.5413 51.2971 48.9844 55.6355 53.331C59.9668 57.6705 54.4043 63.168 59.7251 68.4889C65.046 73.8098 73.476 74.0069 78.5539 68.929C81.5699 65.913 82.5474 61.1241 81.1973 56.3845C79.8231 51.5598 79.4524 45.7998 82.9997 42.2525L100.112 25.1405M25.1406 99.8623L36.7229 88.211C40.2671 84.6458 46.0641 85.005 50.9242 86.29C55.872 87.5982 61.0508 86.4611 64.6367 83.0956C67.7211 80.2009 68.8881 76.3928 68.4231 72.6666M9.08337 83.8051L20.7501 72.2768C24.3336 68.7359 23.9742 62.9257 22.697 58.0526C21.407 53.1307 22.5818 48.0117 26.0994 44.5583C29.0555 41.6562 32.7356 40.4637 36.3336 40.8074" stroke="white" stroke-width="6.8125" stroke-linecap="round" stroke-linejoin="round"/>
</svg>
