<svg width="109" height="109" viewBox="0 0 109 109" fill="none" xmlns="http://www.w3.org/2000/svg">
<path d="M18.1667 102.187V82.0816C18.1667 77.9216 16.609 73.961 14.5298 70.3579C11.0655 64.3543 9.08337 57.3878 9.08337 49.9583C9.08337 27.3837 27.3837 9.08331 49.9584 9.08331C72.2402 9.08331 90.3579 26.7818 90.8242 51.2606C90.8363 51.896 90.9667 52.5292 91.2248 53.1099L99.9167 72.6666L90.8334 77.2083C86.2917 93.1041 87.2 97.6458 72.6667 97.6458C58.1334 97.6458 56.7709 95.375 54.5 88.5625M45.4167 68.125C45.4167 63.1084 49.4835 59.0416 54.5 59.0416C60.7708 59.0416 65.8542 53.9582 65.8542 47.6875M65.8542 47.6875C69.6166 47.6875 72.6667 44.6374 72.6667 40.875C72.6667 37.1125 69.6166 34.0625 65.8542 34.0625C64.8863 34.0625 63.9655 34.2643 63.1317 34.6283C63.4248 33.7358 63.5834 32.7822 63.5834 31.7916C63.5834 26.7751 59.5166 22.7083 54.5 22.7083C50.2012 22.7083 46.5999 25.6946 45.6573 29.7058M65.8542 47.6875C63.8366 47.6875 62.0238 46.8104 60.7764 45.4166M28.2475 43.2646C25.0937 43.8609 22.7084 46.6311 22.7084 49.9583C22.7084 53.7208 25.7584 56.7708 29.5209 56.7708C32.4871 56.7708 35.0105 54.8751 35.9457 52.2291M28.2475 43.2646C28.66 43.1866 29.0857 43.1458 29.5209 43.1458M28.2475 43.2646C27.6067 41.8427 27.25 40.2651 27.25 38.6041C27.25 32.3334 32.3335 27.25 38.6042 27.25C41.2695 27.25 43.7202 28.1683 45.6573 29.7058M45.6573 29.7058C48.2778 31.7857 49.9584 34.9987 49.9584 38.6041" stroke="white" stroke-width="6.8125" stroke-linecap="round" stroke-linejoin="round"/>
</svg>
