<svg width="109" height="109" viewBox="0 0 109 109" fill="none" xmlns="http://www.w3.org/2000/svg">
<path d="M63.5833 13.625V16.6528C63.5833 19.9972 66.2945 22.7083 69.6389 22.7083V22.7083C76.3277 22.7083 81.75 28.1307 81.75 34.8194V35.1979C81.75 42.0957 76.1582 47.6875 69.2604 47.6875H36.3333M45.4167 13.625V20.4375C45.4167 27.9624 51.5168 34.0625 59.0417 34.0625H63.5833H27.25C19.7251 34.0625 13.625 40.1626 13.625 47.6875V47.6875C13.625 55.2124 19.7251 61.3125 27.25 61.3125H45.4167M74.9375 61.3125H45.4167M63.5833 47.6875H81.75C89.2749 47.6875 95.375 53.7876 95.375 61.3125V61.3125C95.375 68.8374 89.2749 74.9375 81.75 74.9375H49.9583V74.9375C57.4832 74.9375 63.5833 81.0376 63.5833 88.5625V95.375M45.4167 95.375V90.0764C45.4167 89.2403 44.7389 88.5625 43.9028 88.5625H40.875C33.3501 88.5625 27.25 82.4624 27.25 74.9375V74.9375C27.25 67.4126 33.3501 61.3125 40.875 61.3125H45.4167" stroke="white" stroke-width="6.8125" stroke-linecap="round" stroke-linejoin="round"/>
</svg>
