<svg width="109" height="109" viewBox="0 0 109 109" fill="none" xmlns="http://www.w3.org/2000/svg">
<path d="M36.0039 49.2513C42.5466 51.6549 46.2901 58.6989 44.4511 65.5623C42.5035 72.8308 35.0325 77.1444 27.764 75.1968C13.2271 71.3016 4.86336 55.3774 9.08312 39.6291C13.3029 23.8807 28.5082 14.2718 43.0451 18.1669C47.8908 19.4653 50.7664 24.4461 49.468 29.2917C48.1696 34.1374 43.1889 37.013 38.3433 35.7146C36.8642 35.3183 35.5686 34.5789 34.5193 33.6049M36.0039 49.2513C35.6178 49.1094 35.2219 48.9837 34.8168 48.8752C32.9815 48.3834 31.1334 48.2908 29.3645 48.5442M36.0039 49.2513C38.0617 48.6502 39.667 47.2104 40.6583 45.4169M40.1352 36.1947C42.2585 38.8796 42.222 42.5882 40.6583 45.4169M72.9956 49.2509C66.4529 51.6545 62.7093 58.6986 64.5484 65.562C66.496 72.8304 73.967 77.144 81.2355 75.1964C95.7724 71.3013 104.136 55.3771 99.9164 39.6287C95.6966 23.8803 80.4913 14.2714 65.9543 18.1666C61.1087 19.465 58.2331 24.4457 59.5314 29.2913C60.8298 34.137 65.8106 37.0126 70.6562 35.7142C72.1353 35.3179 73.4308 34.5785 74.4801 33.6046M72.9956 49.2509C73.3817 49.109 73.7776 48.9833 74.1827 48.8748C76.018 48.3831 77.8661 48.2905 79.635 48.5438M72.9956 49.2509C70.9379 48.6499 69.3327 47.2102 68.3414 45.4169M68.8642 36.1943C66.7409 38.8794 66.7775 42.5881 68.3414 45.4169M68.3414 45.4169V45.4169C61.6644 45.4169 55.9661 50.2442 54.8684 56.8303L54.4998 59.0419M54.4998 95.3753L54.4998 59.0419M40.6583 45.4169V45.4169C47.3352 45.4169 53.0335 50.2441 54.1312 56.8302L54.4998 59.0419" stroke="white" stroke-width="6.8125" stroke-linecap="round" stroke-linejoin="round"/>
</svg>
