<svg width="109" height="109" viewBox="0 0 109 109" fill="none" xmlns="http://www.w3.org/2000/svg">
<path d="M43.1457 29.5203C43.1457 24.2217 39.4536 18.9253 24.979 31.7914C4.54138 49.9579 11.354 90.8328 13.6249 93.1037C15.8957 95.3745 40.8748 84.0203 43.1457 79.4787C45.4165 74.937 40.8749 68.1245 45.4165 59.0412M65.854 29.5203C65.854 24.2216 69.5461 18.9252 84.0206 31.7913C104.458 49.9578 97.6456 90.8328 95.3748 93.1036C93.104 95.3744 68.1248 84.0203 65.854 79.4786C63.5831 74.9369 68.1248 68.1244 63.5831 59.0411M77.2083 65.8542C77.2083 55.1307 70.307 49.7845 65.0513 46.3066C54.2108 39.133 54.4999 25.7764 54.4999 14.2557C54.4999 25.7764 54.7889 39.133 43.9485 46.3066C38.6927 49.7845 31.7917 55.1307 31.7917 65.8542" stroke="white" stroke-width="6.8125" stroke-linecap="round" stroke-linejoin="round"/>
</svg>
