<svg width="109" height="109" viewBox="0 0 109 109" fill="none" xmlns="http://www.w3.org/2000/svg">
<path d="M29.4346 97.6459C27.073 91.0639 29.0057 80.1555 33.9476 73.8938C35.669 71.7127 38.7588 72.7465 40.2033 75.1201C44.9476 82.916 53.1643 88.5625 62.84 88.5625C96.9024 88.5625 108.257 28.2232 81.0066 34.0625C74.194 35.5224 65.1107 24.9792 67.3815 11.3542M15.8955 97.6459C9.56016 83.6939 14.516 65.1841 26.7603 55.1928C29.2634 53.1503 32.7455 53.292 35.7068 54.5835C47.4658 59.712 56.3099 57.0998 62.5829 49.1408C64.1258 47.1833 63.354 44.4112 61.4555 42.7964C52.8293 35.4595 49.739 23.4068 53.7565 11.3542" stroke="white" stroke-width="6.8125" stroke-linecap="round" stroke-linejoin="round"/>
</svg>
